<svg xmlns="http://www.w3.org/2000/svg" viewBox="0 0 89.84 106.76"><defs><style>.cls-1{fill:#7f7f7f;}.cls-2{fill:#fff;}.cls-3{fill:#48c0a9;}.cls-4{fill:#2f528f;}.cls-5{fill:#002060;}</style></defs><g id="圖層_2" data-name="圖層 2"><g id="圖層_1-2" data-name="圖層 1"><g id="圖層_2-2" data-name="圖層 2"><g id="Layer_1" data-name="Layer 1"><path class="cls-1" d="M89.84,15V92c-.26.23-.43.31-.46.45a17.77,17.77,0,0,1-6.21,10.14,16.38,16.38,0,0,1-10.71,4.19H18.7a22,22,0,0,1-4.44-.25,17.5,17.5,0,0,1-11.4-8.07A19.86,19.86,0,0,1,0,87.34q0-35.4.31-70.85A15,15,0,0,1,3.43,8,17.31,17.31,0,0,1,14.09.6a2.26,2.26,0,0,0,.17-.6H75.17a.45.45,0,0,0,.28.4A17.86,17.86,0,0,1,89.12,14.64s.4.2.6.32M80.38,44.27V38.06c-1.77.17-3.31.48-4.84.48H40.75a50.89,50.89,0,0,1-6.29-.34,9.1,9.1,0,0,1-7.95-6.35,10.13,10.13,0,0,1-.66-4.07c.4-6.22-1.42-12.6,1.83-18.64H18.9a9.3,9.3,0,0,0-9.77,8.78,8.34,8.34,0,0,0,0,1V86.4a32.93,32.93,0,0,0,.31,4.33,8.8,8.8,0,0,0,8.12,7H72.32a9.07,9.07,0,0,0,8.12-8C80.29,74.67,80.38,59.62,80.38,44.27Z"/><path class="cls-2" d="M20.9,75.46c-2.48,0-4.62-.17-5.7-2.85s-.23-7.43,1.51-8.54a5.19,5.19,0,0,1,2.19-.71h3.73a3.88,3.88,0,0,1,3.94,3,19.38,19.38,0,0,1,0,5.69,4,4,0,0,1-4.45,3.39C21.81,75.49,21.44,75.46,20.9,75.46Z"/><path class="cls-3" d="M19.1,55.21a4.6,4.6,0,0,1-4.14-5v-.07c-.2-5.7,1.14-7,6.78-6.73,3.56.18,5,1.51,5,5.1V51a4.18,4.18,0,0,1-4.13,4.25h-.17C21.41,55.24,20.33,55.21,19.1,55.21Z"/><path class="cls-4" d="M19.42,96.37a5.35,5.35,0,0,1-4.68-3.13,8.83,8.83,0,0,1,2-9.57,11.93,11.93,0,0,1,9.32.45c2.11,1.54,2.65,9.55-.43,11.2a11.36,11.36,0,0,1-6.26,1.05m6.38-4.61V87.68a2.85,2.85,0,0,0-2.62-2.84,28.92,28.92,0,0,0-4.56,0,2.58,2.58,0,0,0-2.08,1.36A17.11,17.11,0,0,0,16,90.82a3.3,3.3,0,0,0,2.84,3.62,15.25,15.25,0,0,0,4.16,0A3.27,3.27,0,0,0,25.8,91.76Z"/><path class="cls-5" d="M25.8,91.9A3.25,3.25,0,0,1,23,94.49a14.5,14.5,0,0,1-4.16,0,3.3,3.3,0,0,1-2.85-3.62,17.91,17.91,0,0,1,.51-4.61c.17-.63,1.31-1.25,2.08-1.37a31.55,31.55,0,0,1,4.56,0,2.85,2.85,0,0,1,2.62,2.85C25.82,89.05,25.8,90.42,25.8,91.9Z"/></g></g></g></g></svg>