<svg id="圖層_1" data-name="圖層 1" xmlns="http://www.w3.org/2000/svg" viewBox="0 0 31.53 37.51"><defs><style>.cls-1{fill:#7f7f7f;}.cls-2{fill:#fff;}.cls-3{fill:#48c0a9;}.cls-4{fill:#2f528f;}.cls-5{fill:#002060;}</style></defs><g id="圖層_2" data-name="圖層 2"><g id="Layer_1" data-name="Layer 1"><path class="cls-1" d="M28.38,8V29.58c-.07.06-.12.09-.12.13a5.06,5.06,0,0,1-1.75,2.85,4.59,4.59,0,0,1-3,1.17H8.4a5.8,5.8,0,0,1-1.25-.07A4.91,4.91,0,0,1,4,31.4a5.61,5.61,0,0,1-.81-3.12q0-9.95.09-19.91A4.2,4.2,0,0,1,4.11,6a4.81,4.81,0,0,1,3-2.06.71.71,0,0,0,.05-.17H24.26a.14.14,0,0,0,.08.11,5,5,0,0,1,3.84,4l.17.09m-2.62,8.24V14.43c-.5.05-.93.14-1.36.14H14.59a15,15,0,0,1-1.77-.1,2.54,2.54,0,0,1-2.23-1.78,2.83,2.83,0,0,1-.18-1.15c.11-1.74-.4-3.53.51-5.23H8.45A2.6,2.6,0,0,0,5.71,8.77a1.31,1.31,0,0,0,0,.28V28a9.83,9.83,0,0,0,.08,1.21,2.48,2.48,0,0,0,2.29,2H23.46a2.54,2.54,0,0,0,2.28-2.26C25.7,24.72,25.73,20.49,25.73,16.18Z"/><path class="cls-2" d="M9,24.94c-.69,0-1.29,0-1.6-.8a2.46,2.46,0,0,1,.43-2.4,1.42,1.42,0,0,1,.61-.2H9.5a1.1,1.1,0,0,1,1.11.85,5.36,5.36,0,0,1,0,1.6,1.12,1.12,0,0,1-1.25,1Z"/><path class="cls-3" d="M8.51,19.25a1.28,1.28,0,0,1-1.16-1.4v0c-.06-1.6.32-2,1.9-1.89,1,.05,1.42.42,1.42,1.43v.69a1.17,1.17,0,0,1-1.16,1.19h0C9.16,19.26,8.85,19.25,8.51,19.25Z"/><path class="cls-4" d="M8.6,30.82a1.51,1.51,0,0,1-1.32-.88,2.47,2.47,0,0,1,.58-2.69,3.32,3.32,0,0,1,2.62.13c.59.43.74,2.68-.12,3.14a3.16,3.16,0,0,1-1.76.3m1.79-1.3V28.38a.8.8,0,0,0-.74-.8,6.84,6.84,0,0,0-1.28,0,.74.74,0,0,0-.58.38,4.77,4.77,0,0,0-.15,1.3.93.93,0,0,0,.8,1,3.82,3.82,0,0,0,1.17,0A.9.9,0,0,0,10.39,29.52Z"/><path class="cls-5" d="M10.39,29.56a.91.91,0,0,1-.8.73,3.82,3.82,0,0,1-1.17,0,.93.93,0,0,1-.8-1A5.1,5.1,0,0,1,7.76,28c0-.18.37-.35.59-.39a9.11,9.11,0,0,1,1.28,0,.81.81,0,0,1,.74.8C10.4,28.76,10.39,29.15,10.39,29.56Z"/></g></g></svg>