<svg xmlns="http://www.w3.org/2000/svg" viewBox="0 0 31.53 37.51"><defs><style>.cls-1{fill:#7f7f7f;}.cls-2{fill:#fff;}.cls-3{fill:#48c0a9;}.cls-4{fill:#2f528f;}.cls-5{fill:#002060;}</style></defs><g id="圖層_2" data-name="圖層 2"><g id="Layer_1" data-name="Layer 1"><path class="cls-1" d="M31.53,5.28q0,13.47,0,27c-.09.08-.15.11-.16.16A6.25,6.25,0,0,1,29.19,36a5.76,5.76,0,0,1-3.76,1.47c-6.29,0-12.58,0-18.87,0A7.67,7.67,0,0,1,5,37.38a6.14,6.14,0,0,1-4-2.83,7,7,0,0,1-1-3.89Q0,18.23.11,5.79a5.28,5.28,0,0,1,1.09-3A6.08,6.08,0,0,1,4.94.21S5,.07,5,0c7.11,0,14.23,0,21.38,0,0,.08.07.13.1.14a6.27,6.27,0,0,1,4.8,5s.14.07.21.11M28.21,15.54V13.36c-.62.06-1.16.17-1.7.17H14.3a18.08,18.08,0,0,1-2.21-.12A3.2,3.2,0,0,1,9.3,11.18a3.52,3.52,0,0,1-.23-1.43c.14-2.18-.5-4.42.64-6.54-1.06,0-2.07,0-3.08,0A3.26,3.26,0,0,0,3.2,6.64c0,7.9,0,15.79,0,23.69a11.1,11.1,0,0,0,.11,1.52,3.09,3.09,0,0,0,2.85,2.44H25.38a3.18,3.18,0,0,0,2.85-2.82C28.18,26.21,28.21,20.93,28.21,15.54Z"/><path class="cls-2" d="M7.33,26.49c-.87,0-1.62-.06-2-1s-.08-2.61.53-3a1.84,1.84,0,0,1,.77-.25c.43,0,.87,0,1.31,0a1.36,1.36,0,0,1,1.38,1.06,6.64,6.64,0,0,1,0,2,1.39,1.39,0,0,1-1.56,1.19C7.65,26.5,7.52,26.49,7.33,26.49Z"/><path class="cls-3" d="M6.7,19.38A1.61,1.61,0,0,1,5.25,17.6c-.07-2,.4-2.45,2.38-2.36,1.25.06,1.77.53,1.77,1.79,0,.29,0,.58,0,.86a1.47,1.47,0,0,1-1.51,1.49C7.51,19.39,7.13,19.38,6.7,19.38Z"/><path class="cls-4" d="M6.81,33.83a1.88,1.88,0,0,1-1.64-1.1,3.09,3.09,0,0,1,.72-3.36,4.18,4.18,0,0,1,3.27.16c.74.54.93,3.35-.15,3.93a4,4,0,0,1-2.2.37m2.24-1.62c0-.47,0-.95,0-1.43a1,1,0,0,0-.92-1,10.67,10.67,0,0,0-1.6,0c-.27,0-.67.26-.73.48a6.19,6.19,0,0,0-.18,1.62,1.16,1.16,0,0,0,1,1.27,5.12,5.12,0,0,0,1.46,0A1.14,1.14,0,0,0,9.05,32.21Z"/><path class="cls-5" d="M9.05,32.26a1.14,1.14,0,0,1-1,.91,5.12,5.12,0,0,1-1.46,0,1.16,1.16,0,0,1-1-1.27,6.19,6.19,0,0,1,.18-1.62c.06-.22.46-.44.73-.48a10.67,10.67,0,0,1,1.6,0,1,1,0,0,1,.92,1C9.06,31.26,9.05,31.74,9.05,32.26Z"/></g></g></svg>